<svg xmlns="http://www.w3.org/2000/svg" width="43" height="43" viewBox="0 0 43 43">
  <g id="Group_217" data-name="Group 217" transform="translate(-28 -283)">
    <g id="Group_121" data-name="Group 121" transform="translate(-4233 -35)">
      <circle id="Ellipse_23" data-name="Ellipse 23" cx="21.5" cy="21.5" r="21.5" transform="translate(4261 318)" fill="#0b7f42"/>
    </g>
    <g id="Group_127" data-name="Group 127" transform="translate(40.871 295.932)">
      <path id="Path_6" data-name="Path 6" d="M-705.638,162.766c0-.348,0-.7,0-1.043a.707.707,0,0,1,.663-.723.68.68,0,0,1,.748.632,21.064,21.064,0,0,1-.039,2.562,2.214,2.214,0,0,1-2.054,1.8c-.716.017-1.433.009-2.15,0a.717.717,0,0,1-.74-.717.71.71,0,0,1,.743-.707c.626,0,1.252,0,1.878,0,.083,0,.167,0,.25,0,.491-.024.679-.2.695-.694.012-.368,0-.737,0-1.106Z" transform="translate(721.336 -148.868)" fill="#fff"/>
      <path id="Path_7" data-name="Path 7" d="M-704.213-126.226c0,.355,0,.71,0,1.064a.726.726,0,0,1-.717.763.715.715,0,0,1-.709-.763c0-.654,0-1.308,0-1.961a2.224,2.224,0,0,0-.021-.312c-.047-.321-.188-.484-.509-.508-.4-.03-.806-.022-1.209-.026-.369,0-.737,0-1.106,0a.708.708,0,0,1-.726-.7.712.712,0,0,1,.716-.718c.737-.007,1.475-.02,2.212,0a2.285,2.285,0,0,1,2.068,2.122c.007.348,0,.7,0,1.043Z" transform="translate(721.337 129.404)" fill="#fff"/>
      <path id="Path_8" data-name="Path 8" d="M-999.488,162.82c0-.348,0-.7,0-1.043a.725.725,0,0,1,.72-.779.714.714,0,0,1,.705.767c0,.612,0,1.224,0,1.836,0,.077,0,.153,0,.23.017.535.206.729.74.735.7.007,1.405,0,2.108.005a.7.7,0,0,1,.695.522.69.69,0,0,1-.61.89,20.651,20.651,0,0,1-2.5-.031,2.227,2.227,0,0,1-1.86-2.15C-999.487,163.474-999.488,163.147-999.488,162.82Z" transform="translate(999.49 -148.868)" fill="#fff"/>
      <path id="Path_9" data-name="Path 9" d="M-999.5-126.078a9.727,9.727,0,0,1,.01-1.311,2.258,2.258,0,0,1,2.2-1.864c.682,0,1.364,0,2.045,0a.7.7,0,0,1,.7.571.692.692,0,0,1-.4.789.984.984,0,0,1-.365.061c-.647.006-1.294,0-1.941,0a2.209,2.209,0,0,0-.312.021c-.321.047-.488.188-.506.509-.029.52-.021,1.042-.027,1.563,0,.25,0,.5,0,.751a.711.711,0,0,1-.705.725.717.717,0,0,1-.717-.718c-.008-.368,0-.737,0-1.106Z" transform="translate(999.526 129.259)" fill="#fff"/>
      <path id="Path_10" data-name="Path 10" d="M-859.007,146.034a4.4,4.4,0,0,1-2.495-.819.713.713,0,0,1-.217-1.006.706.706,0,0,1,1.026-.168,2.77,2.77,0,0,0,1.815.559,2.7,2.7,0,0,0,1.484-.545.706.706,0,0,1,.707-.117.674.674,0,0,1,.453.553.677.677,0,0,1-.285.695A4.342,4.342,0,0,1-859.007,146.034Z" transform="translate(867.593 -132.475)" fill="#fff"/>
      <path id="Path_11" data-name="Path 11" d="M-827.984,11.029c0-.952,0-1.883,0-2.814a.7.7,0,0,1,.716-.731.69.69,0,0,1,.7.677c.008.98.012,1.96,0,2.94a1.576,1.576,0,0,1-1.3,1.363.721.721,0,0,1-.825-.565.717.717,0,0,1,.566-.842C-828.079,11.047-828.039,11.041-827.984,11.029Z" transform="translate(835.833 -1.766)" fill="#fff"/>
      <path id="Path_12" data-name="Path 12" d="M-895.565,8.909c0,.229,0,.459,0,.688a.719.719,0,0,1-.717.739.7.7,0,0,1-.71-.737c-.006-.459-.008-.917,0-1.376a.7.7,0,0,1,.711-.737.709.709,0,0,1,.716.735c.006.229,0,.459,0,.688Z" transform="translate(901.281 -1.768)" fill="#fff"/>
      <path id="Path_13" data-name="Path 13" d="M-725.072,8.922c0,.236.005.473,0,.709a.7.7,0,0,1-.7.708.7.7,0,0,1-.721-.664c-.019-.507-.021-1.015,0-1.521a.694.694,0,0,1,.74-.663.7.7,0,0,1,.681.7c.008.243,0,.486,0,.73Z" transform="translate(737.91 -1.772)" fill="#fff"/>
    </g>
  </g>
</svg>
