<svg xmlns="http://www.w3.org/2000/svg" width="26.31" height="21.277" viewBox="0 0 26.31 21.277">
  <g id="Group_60" data-name="Group 60" transform="translate(-199.421 -728.203)">
    <path id="Path_30" data-name="Path 30" d="M235.286,761.3c2.372,0,4.744-.012,7.116,0,1.69.012,2.739.963,2.719,2.415-.019,1.392-1.044,2.281-2.706,2.286q-7.178.021-14.357.006c-1.749,0-2.769-.891-2.779-2.349s1.021-2.345,2.766-2.352c2.413-.01,4.827,0,7.241,0Z" transform="translate(-19.391 -24.816)" fill="#fff"/>
    <path id="Path_31" data-name="Path 31" d="M235.287,728.208c2.413,0,4.827-.01,7.24,0a2.338,2.338,0,1,1,.135,4.658q-7.488.057-14.978-.008a2.27,2.27,0,0,1-2.4-2.448,2.313,2.313,0,0,1,2.517-2.2C230.294,728.2,232.79,728.209,235.287,728.208Z" transform="translate(-19.389)" fill="#fff"/>
    <path id="Path_32" data-name="Path 32" d="M229.713,799.4c-.749,0-1.5.033-2.246-.007a2.26,2.26,0,0,1-2.213-2.107,2.156,2.156,0,0,1,1.986-2.422,41.515,41.515,0,0,1,5.105.013,2.1,2.1,0,0,1,1.907,2.233,2.264,2.264,0,0,1-2.045,2.273c-.827.064-1.663.012-2.495.012Z" transform="translate(-19.367 -49.93)" fill="#fff"/>
    <circle id="Ellipse_6" data-name="Ellipse 6" cx="2.275" cy="2.275" r="2.275" transform="translate(199.421 728.274)" fill="#fff"/>
    <circle id="Ellipse_7" data-name="Ellipse 7" cx="2.275" cy="2.275" r="2.275" transform="translate(199.421 736.567)" fill="#fff"/>
    <circle id="Ellipse_8" data-name="Ellipse 8" cx="2.275" cy="2.275" r="2.275" transform="translate(199.421 744.859)" fill="#fff"/>
  </g>
</svg>
